<?xml version="1.0" encoding="UTF-8" standalone="no"?>
<svg width="512px" height="512px" viewBox="0 0 512 512" version="1.1" xmlns="http://www.w3.org/2000/svg" xmlns:xlink="http://www.w3.org/1999/xlink">
    <!-- Generator: Sketch 41.2 (35397) - http://www.bohemiancoding.com/sketch -->
    <title>muid-new</title>
    <desc>Created with Sketch.</desc>
    <defs></defs>
    <g id="logo" stroke="none" stroke-width="1" fill="none" fill-rule="evenodd">
        <g id="muid">
            <g id="m" transform="scale(0.5)">
                <rect id="quad" fill="#003399" x="0" y="0" width="512" height="512"></rect>
                <polygon id="bar-1" fill="#FFFFFF" transform="translate(256.000000, 256.000000) scale(-1, 1) translate(-256.000000, -256.000000) " points="0 5.69648495e-14 92 0 512 421 512 512 421 512 0 91"></polygon>
                <polygon id="bar-1" fill="#FFFFFF" points="0 5.69648495e-14 92 0 512 421 512 512 421 512 0 91"></polygon>
            </g>
            <g id="u" transform="translate(256.000000, 0.000000) scale(0.5)">
                <rect id="red-block-2" fill="#FF0000" x="256" y="256" width="256" height="256"></rect>
                <rect id="white-block-2" fill="#FFFFFF" x="0" y="256" width="256" height="256"></rect>
                <rect id="white-block-1" fill="#FFFFFF" x="256" y="0" width="256" height="256"></rect>
                <rect id="red-block-1" fill="#FF0000" x="0" y="0" width="256" height="256"></rect>
            </g>
            <g id="i" transform="translate(0.000000, 256.000000) scale(0.5)">
                <rect id="quad" fill="#FFFF00" x="0" y="-1" width="512" height="512"></rect>
                <circle id="dot" fill="#000000" cx="256" cy="255" r="128"></circle>
            </g>
            <g id="d" transform="translate(256.000000, 256.000000) scale(0.5)">
                <rect id="bar-3" fill="#FBFC01" x="0" y="342" width="512" height="170"></rect>
                <rect id="bar-2" fill="#003298" x="0" y="170" width="512" height="172"></rect>
                <rect id="bar-1" fill="#FBFC01" x="0" y="0" width="512" height="170"></rect>
            </g>
        </g>
    </g>
</svg>